<?xml version="1.0" encoding="UTF-8" standalone="no"?>
<!-- Created with Inkscape (http://www.inkscape.org/) -->

<svg
   width="112.75623mm"
   height="25.632181mm"
   viewBox="0 0 112.75623 25.632181"
   version="1.1"
   id="svg1065"
   inkscape:version="1.2.1 (9c6d41e, 2022-07-14)"
   sodipodi:docname="SNU_logo.svg"
   xmlns:inkscape="http://www.inkscape.org/namespaces/inkscape"
   xmlns:sodipodi="http://sodipodi.sourceforge.net/DTD/sodipodi-0.dtd"
   xmlns="http://www.w3.org/2000/svg"
   xmlns:svg="http://www.w3.org/2000/svg">
  <sodipodi:namedview
     id="namedview1067"
     pagecolor="#ffffff"
     bordercolor="#666666"
     borderopacity="1.0"
     inkscape:showpageshadow="2"
     inkscape:pageopacity="0.0"
     inkscape:pagecheckerboard="0"
     inkscape:deskcolor="#d1d1d1"
     inkscape:document-units="mm"
     showgrid="false"
     inkscape:zoom="1.6819304"
     inkscape:cx="307.38489"
     inkscape:cy="114.7491"
     inkscape:window-width="1512"
     inkscape:window-height="916"
     inkscape:window-x="0"
     inkscape:window-y="1022"
     inkscape:window-maximized="1"
     inkscape:current-layer="layer1" />
  <defs
     id="defs1062" />
  <g
     inkscape:label="Layer 1"
     inkscape:groupmode="layer"
     id="layer1"
     transform="translate(-11.579478,-17.38731)">
    <g
       id="g1253">
      <path
         d="m 45.610173,38.37474 c 0,0 -1.07139,-0.61665 -1.12995,-0.71578 0,0 -0.1136,-0.0981 -0.1136,-0.24977 0,0 -0.0399,-0.33867 0.23919,-0.48401 0,0 0.11853,-0.1464 0.58208,-0.1464 0,0 0.35948,0.002 0.65546,0.20214 l -0.0265,-0.42016 c 0,0 -0.85372,-0.20602 -1.31586,0.0219 -0.4639,0.23425 -0.57467,0.57926 -0.57467,0.82444 0,0.24377 0.13899,0.60184 0.50941,0.8054 0,0 0.95744,0.47801 1.19062,0.76552 0,0 0.22155,0.30833 0.006,0.69709 0,0 -0.23354,0.33302 -0.7493,0.33302 0,0 -0.56197,0 -0.91299,-0.19967 l 0.0335,0.39088 c 0,0 0.50905,0.0787 0.88476,0.0787 0,0 0.61595,0.0222 0.9204,-0.21766 0,0 0.39053,-0.2974 0.39053,-0.75601 0,0 0.0801,-0.54081 -0.58914,-0.92957"
         style="fill:#223786;fill-opacity:1;fill-rule:nonzero;stroke:none;stroke-width:0.0352778"
         id="path791" />
      <path
         d="M 47.468603,39.90827 V 38.3183 h 1.16452 c 0.11289,0 0.17004,0.0459 0.17004,0.0459 v -0.32632 h -1.33456 v -1.2132 h 1.20438 c 0.10478,0 0.19015,0.0667 0.19015,0.0667 l -0.0145,-0.39158 h -1.85808 c 0,0 0.0667,0.12312 0.0667,0.27552 v 3.18982 c 0,0 0.0138,0.0533 -0.0699,0.23812 h 2.00237 l 0.054,-0.36124 c -0.0864,0.0727 -0.36124,0.0663 -0.36124,0.0663 h -1.21391"
         style="fill:#223786;fill-opacity:1;fill-rule:nonzero;stroke:none;stroke-width:0.0352778"
         id="path793" />
      <path
         d="m 51.534363,36.48068 c -1.01423,0 -1.8355,0.83114 -1.8355,1.85702 0,1.02341 0.82127,1.8535 1.8355,1.8535 1.01565,0 1.83833,-0.83009 1.83833,-1.8535 0,-1.02588 -0.82268,-1.85702 -1.83833,-1.85702 z m 0,3.423 c -0.79586,0 -1.44145,-0.70132 -1.44145,-1.56598 0,-0.86783 0.64559,-1.56845 1.44145,-1.56845 0.79763,0 1.44145,0.70062 1.44145,1.56845 0,0.86466 -0.64382,1.56598 -1.44145,1.56598"
         style="fill:#223786;fill-opacity:1;fill-rule:nonzero;stroke:none;stroke-width:0.0352778"
         id="path795" />
      <path
         d="m 77.631813,36.48068 c -1.01353,0 -1.83621,0.83114 -1.83621,1.85702 0,1.02341 0.82268,1.8535 1.83621,1.8535 1.01494,0 1.83691,-0.83009 1.83691,-1.8535 0,-1.02588 -0.82197,-1.85702 -1.83691,-1.85702 z m 0,3.423 c -0.79657,0 -1.44145,-0.70132 -1.44145,-1.56598 0,-0.86783 0.64488,-1.56845 1.44145,-1.56845 0.79657,0 1.44215,0.70062 1.44215,1.56845 0,0.86466 -0.64558,1.56598 -1.44215,1.56598"
         style="fill:#223786;fill-opacity:1;fill-rule:nonzero;stroke:none;stroke-width:0.0352778"
         id="path797" />
      <path
         d="m 57.114253,36.50255 h -0.4953 c 0.0536,0.0349 0.061,0.18486 0.061,0.18486 v 2.24684 c 0,0.5588 -0.45155,1.00894 -1.00965,1.00894 -0.5588,0 -1.01,-0.45014 -1.01,-1.00894 l 0.004,-0.0522 -0.008,-2.36926 -0.39829,-0.008 v 2.44051 c 0.0102,0.71579 0.63747,1.29399 1.409,1.29399 0.77928,0 1.4097,-0.58878 1.4097,-1.31268 h -0.003 V 36.684 c 0,-0.0794 0.0402,-0.18098 0.0402,-0.18098"
         style="fill:#223786;fill-opacity:1;fill-rule:nonzero;stroke:none;stroke-width:0.0352778"
         id="path799" />
      <path
         d="M 58.629783,39.93155 V 36.7375 c 0,-0.15804 0.0628,-0.23177 0.0628,-0.23177 h -0.5147 c 0.054,0.0755 0.0423,0.1591 0.0423,0.1591 v 3.53836 h 1.97873 l 0.11606,-0.33514 c -0.1217,0.0691 -0.31467,0.0635 -0.31467,0.0635 h -1.37055"
         style="fill:#223786;fill-opacity:1;fill-rule:nonzero;stroke:none;stroke-width:0.0352778"
         id="path801" />
      <path
         d="M 89.083683,39.93155 V 36.7375 c 0,-0.15804 0.0617,-0.23177 0.0617,-0.23177 h -0.514 c 0.0536,0.0755 0.0413,0.1591 0.0413,0.1591 v 3.53836 h 1.9745 l 0.11853,-0.33514 c -0.12276,0.0691 -0.31679,0.0635 -0.31679,0.0635 h -1.36525"
         style="fill:#223786;fill-opacity:1;fill-rule:nonzero;stroke:none;stroke-width:0.0352778"
         id="path803" />
      <path
         d="m 66.022603,36.76184 v 2.59292 l -2.58728,-2.85503 h -0.41874 c 0,0 0.0727,0.0885 0.0727,0.28293 v 3.15701 c 0,0 -0.006,0.15733 -0.0536,0.25153 v 0.002 h 0.40957 c -0.0448,-0.0977 -0.0448,-0.26846 -0.0448,-0.26846 v -2.90513 l 2.90406,3.15243 v -3.42477 c 0,-0.10724 0.0494,-0.24765 0.0494,-0.24765 h -0.39405 c 0.0695,0.0713 0.0628,0.26211 0.0628,0.26211"
         style="fill:#223786;fill-opacity:1;fill-rule:nonzero;stroke:none;stroke-width:0.0352778"
         id="path805" />
      <path
         d="m 83.298123,36.76184 v 2.59292 l -2.58727,-2.85503 h -0.42086 c 0,0 0.0748,0.0885 0.0748,0.28293 v 3.15701 c 0,0 -0.008,0.15733 -0.0533,0.25153 v 0.002 h 0.40957 c -0.0452,-0.0977 -0.0452,-0.26846 -0.0452,-0.26846 v -2.90513 l 2.90477,3.15243 v -3.42477 c 0,-0.10724 0.0533,-0.24765 0.0533,-0.24765 h -0.3997 c 0.0709,0.0713 0.0639,0.26211 0.0639,0.26211"
         style="fill:#223786;fill-opacity:1;fill-rule:nonzero;stroke:none;stroke-width:0.0352778"
         id="path807" />
      <path
         d="m 68.889623,36.49973 h -0.47166 c 0,0 0.0603,0.15487 0.0148,0.30656 l -1.19768,3.048 c 0,0 -0.14534,0.28611 -0.23142,0.3489 h 0.44732 c -0.024,-0.11536 0.042,-0.22789 0.042,-0.22789 l 0.49036,-1.19275 h 1.51201 l 0.50976,1.05234 c 0.084,0.21625 0.0631,0.3683 0.0631,0.3683 h 0.63324 c -0.23813,-0.30939 -0.3362,-0.53481 -0.3362,-0.53481 z m -0.81456,2.00413 0.58772,-1.49401 0.7112,1.49401 h -1.29892"
         style="fill:#223786;fill-opacity:1;fill-rule:nonzero;stroke:none;stroke-width:0.0352778"
         id="path809" />
      <path
         d="m 86.230063,36.49973 h -0.47025 c 0,0 0.0607,0.15487 0.0155,0.30656 l -1.19486,3.048 c 0,0 -0.14534,0.28611 -0.22966,0.3489 h 0.44486 c -0.0243,-0.11536 0.0413,-0.22789 0.0413,-0.22789 l 0.48895,-1.19275 h 1.5106 l 0.50976,1.05234 c 0.0857,0.21625 0.0646,0.3683 0.0646,0.3683 h 0.63147 c -0.23918,-0.30939 -0.33796,-0.53481 -0.33796,-0.53481 z m -0.72143,2.00413 0.58808,-1.49401 0.70803,1.49401 h -1.29611"
         style="fill:#223786;fill-opacity:1;fill-rule:nonzero;stroke:none;stroke-width:0.0352778"
         id="path811" />
      <path
         d="m 70.782983,36.50855 -0.0282,0.006 -0.0875,0.3182 c 0,0 0.0783,-0.0441 0.22789,-0.0441 h 0.99554 v 3.2124 c 0,0 -0.0152,0.16475 -0.0342,0.21167 h 0.53446 c 0,0 -0.0579,-0.12348 -0.0579,-0.2212 v -3.19369 h 0.77541 c 0,0 0.29281,0 0.41769,0.0783 l -0.072,-0.36759 h -2.67123"
         style="fill:#223786;fill-opacity:1;fill-rule:nonzero;stroke:none;stroke-width:0.0352778"
         id="path813" />
      <path
         d="m 74.900603,36.49973 h -0.51012 c 0,0 0.0642,0.10442 0.0642,0.20637 v 3.25191 c 0,0 -0.009,0.15064 -0.0635,0.25471 h 0.508 c 0,0 -0.0635,-0.10407 -0.0635,-0.26353 v -3.2512 c 0,0 0.0229,-0.15452 0.0649,-0.19826"
         style="fill:#223786;fill-opacity:1;fill-rule:nonzero;stroke:none;stroke-width:0.0352778"
         id="path815" />
      <path
         d="m 115.0887,38.35146 c 0,0 -1.07104,-0.61454 -1.12995,-0.71367 0,0 -0.11465,-0.0995 -0.11465,-0.25082 0,0 -0.0392,-0.33726 0.23847,-0.48296 0,0 0.11818,-0.14569 0.58244,-0.14569 0,0 0.35842,0.002 0.65758,0.19967 l -0.0261,-0.42051 c 0,0 -0.85584,-0.20356 -1.31798,0.0275 -0.46249,0.22896 -0.57467,0.57644 -0.57467,0.81951 0,0.24271 0.1397,0.60113 0.50976,0.8075 0,0 0.95709,0.47837 1.19063,0.76589 0,0 0.22436,0.30726 0.006,0.69461 0,0 -0.23318,0.3355 -0.7493,0.3355 0,0 -0.56233,0 -0.91299,-0.20144 l 0.0332,0.39017 c 0,0 0.50977,0.079 0.88654,0.079 0,0 0.61489,0.0215 0.91828,-0.21872 0,0 0.39334,-0.29704 0.39334,-0.75071 0,0 0.0769,-0.54398 -0.59019,-0.93486"
         style="fill:#223786;fill-opacity:1;fill-rule:nonzero;stroke:none;stroke-width:0.0352778"
         id="path817" />
      <path
         d="m 107.73716,39.9058 v -1.59103 h 1.16346 c 0.11218,0 0.17251,0.0473 0.17251,0.0473 v -0.32808 h -1.33597 v -1.20932 h 1.20368 c 0.10407,0 0.19226,0.0642 0.19226,0.0642 L 109.1169,36.498 h -1.85843 c 0,0 0.0688,0.12065 0.0688,0.27446 v 3.18805 c 0,0 0.0123,0.0557 -0.0716,0.2413 h 2.00272 l 0.0536,-0.36477 c -0.0864,0.0744 -0.36301,0.0688 -0.36301,0.0688 h -1.21179"
         style="fill:#223786;fill-opacity:1;fill-rule:nonzero;stroke:none;stroke-width:0.0352778"
         id="path819" />
      <path
         d="m 95.847493,36.47962 h -0.49424 c 0.054,0.0332 0.0596,0.18733 0.0596,0.18733 v 2.24472 c 0,0.56021 -0.45085,1.00789 -1.00824,1.00789 -0.55669,0 -1.00965,-0.44768 -1.00965,-1.00789 l 0.003,-0.0505 -0.008,-2.37278 -0.39652,-0.008 v 2.44122 c 0.0102,0.71614 0.63711,1.29434 1.40687,1.29434 0.77929,0 1.41112,-0.58737 1.41112,-1.3148 h -0.003 V 36.6596 c 0,-0.0787 0.0388,-0.18027 0.0388,-0.18027"
         style="fill:#223786;fill-opacity:1;fill-rule:nonzero;stroke:none;stroke-width:0.0352778"
         id="path821" />
      <path
         d="m 100.07765,36.75832 v 2.59432 l -2.588327,-2.85467 h -0.4191 c 0,0 0.0734,0.0847 0.0734,0.28081 v 3.15595 c 0,0 -0.007,0.16086 -0.0533,0.25259 v 0.004 h 0.40886 c -0.0448,-0.0984 -0.0448,-0.26635 -0.0448,-0.26635 v -2.90724 l 2.906187,3.15242 v -3.42829 c 0,-0.10443 0.0487,-0.24377 0.0487,-0.24377 h -0.39582 c 0.0695,0.0691 0.0642,0.26035 0.0642,0.26035"
         style="fill:#223786;fill-opacity:1;fill-rule:nonzero;stroke:none;stroke-width:0.0352778"
         id="path823" />
      <path
         d="m 117.89504,36.49797 -0.0307,0.005 -0.0878,0.3175 c 0,0 0.0787,-0.043 0.22754,-0.043 h 0.99766 v 3.21451 c 0,0 -0.0169,0.1644 -0.0356,0.20779 h 0.5341 c 0,0 -0.0575,-0.12241 -0.0575,-0.22049 v -3.19334 h 0.77682 c 0,0 0.29139,0 0.41486,0.0797 l -0.0716,-0.36724 h -2.66771"
         style="fill:#223786;fill-opacity:1;fill-rule:nonzero;stroke:none;stroke-width:0.0352778"
         id="path825" />
      <path
         d="m 117.06496,36.4835 h -0.51118 c 0,0 0.066,0.10619 0.066,0.20814 v 3.24979 c 0,0 -0.01,0.15134 -0.0631,0.25612 h 0.50518 c 0,0 -0.0614,-0.10478 -0.0614,-0.26282 v -3.2512 c 0,0 0.0219,-0.15452 0.0646,-0.20003"
         style="fill:#223786;fill-opacity:1;fill-rule:nonzero;stroke:none;stroke-width:0.0352778"
         id="path827" />
      <path
         d="m 102.23524,36.4835 h -0.51153 c 0,0 0.0632,0.10619 0.0632,0.20814 v 3.24979 c 0,0 -0.01,0.15134 -0.0621,0.25612 h 0.50764 c 0,0 -0.0624,-0.10478 -0.0624,-0.26282 v -3.2512 c 0,0 0.0205,-0.15452 0.0653,-0.20003"
         style="fill:#223786;fill-opacity:1;fill-rule:nonzero;stroke:none;stroke-width:0.0352778"
         id="path829" />
      <path
         d="m 106.06499,36.74738 -1.25694,2.77389 -1.27777,-2.77389 c -0.10018,-0.17851 -0.0508,-0.25894 -0.0508,-0.25894 h -0.53798 c 0,0 0.13793,0.22366 0.28751,0.54963 l 1.54729,3.23991 1.60266,-3.43853 c 0,0 0.14605,-0.27058 0.26035,-0.35101 h -0.52493 c 0,0 0.0512,0.0804 -0.0494,0.25894"
         style="fill:#223786;fill-opacity:1;fill-rule:nonzero;stroke:none;stroke-width:0.0352778"
         id="path831" />
      <path
         d="m 112.50142,39.62322 -1.15605,-1.35431 c 0.34325,0 0.70026,-0.30445 0.70026,-0.30445 0.26459,-0.22472 0.26459,-0.63535 0.26459,-0.63535 -0.0261,-0.38382 -0.27023,-0.57503 -0.27023,-0.57503 -0.28575,-0.29104 -0.7426,-0.26811 -0.7426,-0.26811 -0.71578,0 -1.00824,0.0367 -1.00824,0.0367 0,0 0.0586,0.0656 0.0586,0.1711 v 3.31434 c 0,0.0935 -0.0437,0.17922 -0.0437,0.17922 h 0.50624 c -0.06,-0.0879 -0.055,-0.17322 -0.055,-0.17322 v -1.893 h 0.005 l -0.005,-0.003 v -1.22943 l 0.008,-0.0388 c 0,0 0.006,-0.0917 0.34432,-0.0917 0,0 0.37676,-0.006 0.53481,0.17638 0,0 0.22436,0.18557 0.22436,0.41769 0,0 0.0145,0.381 -0.18485,0.51894 0,0 -0.24307,0.24694 -0.92111,0.24977 l 1.66124,2.06163 h 0.58243 c -0.12383,-0.10569 -0.50307,-0.55937 -0.50307,-0.55937"
         style="fill:#223786;fill-opacity:1;fill-rule:nonzero;stroke:none;stroke-width:0.0352778"
         id="path833" />
      <path
         d="m 123.4199,36.63379 -0.79516,1.35643 -0.84455,-1.32327 c -0.0603,-0.11325 -0.0356,-0.17322 -0.0356,-0.17322 h -0.59936 c 0,0 0.12841,0.11254 0.21836,0.27023 l 0.9779,1.52329 v 1.70569 c 0,0 0.002,0.1277 -0.0363,0.19614 h 0.52705 c -0.0402,-0.0427 -0.0579,-0.18098 -0.0579,-0.18098 v -1.7145 l 0.88971,-1.37724 c 0.27199,-0.44697 0.2981,-0.43568 0.2981,-0.43568 h -0.50765 c 0,0.0801 -0.0346,0.15311 -0.0346,0.15311"
         style="fill:#223786;fill-opacity:1;fill-rule:nonzero;stroke:none;stroke-width:0.0352778"
         id="path835" />
      <path
         d="m 47.182143,23.03032 c -0.03,-0.46637 -0.0127,-1.33456 -0.0127,-1.33456 h -0.63535 -0.635 c 0,0 0.018,0.86819 -0.0116,1.33456 -0.0928,1.44075 -0.67733,3.73027 -2.85362,5.25321 l 0.63606,0.93839 c 0,0 1.87148,-1.02235 2.8642,-3.58069 0.99307,2.55834 2.86491,3.58069 2.86491,3.58069 l 0.63676,-0.93839 c -2.17699,-1.52294 -2.76154,-3.81246 -2.85362,-5.25321"
         style="fill:#223786;fill-opacity:1;fill-rule:nonzero;stroke:none;stroke-width:0.0352778"
         id="path837" />
      <path
         d="m 65.963333,24.59383 c 1.258,0 2.27436,-1.01917 2.27436,-2.27506 0,-1.25942 -1.01636,-2.27859 -2.27436,-2.27859 -1.25695,0 -2.27824,1.01917 -2.27824,2.27859 0,1.25589 1.02129,2.27506 2.27824,2.27506 z m 0,-3.46992 c 0.65828,0 1.18992,0.53763 1.18992,1.19486 0,0.65616 -0.53164,1.18992 -1.18992,1.18992 -0.6597,0 -1.19063,-0.53376 -1.19063,-1.18992 0,-0.65723 0.53093,-1.19486 1.19063,-1.19486"
         style="fill:#223786;fill-opacity:1;fill-rule:nonzero;stroke:none;stroke-width:0.0352778"
         id="path839" />
      <path
         d="m 97.025773,25.58055 c 0,1.23261 0.99659,2.23097 2.22955,2.23097 1.233307,0 2.231667,-0.99836 2.231667,-2.23097 0,-1.23225 -0.99836,-2.23167 -2.231667,-2.23167 -1.23296,0 -2.22955,0.99942 -2.22955,2.23167 z m 3.363377,0 c 0,0.62477 -0.506937,1.13207 -1.133827,1.13207 -0.62406,0 -1.131,-0.5073 -1.131,-1.13207 0,-0.62547 0.50694,-1.13277 1.131,-1.13277 0.62689,0 1.133827,0.5073 1.133827,1.13277"
         style="fill:#223786;fill-opacity:1;fill-rule:nonzero;stroke:none;stroke-width:0.0352778"
         id="path841" />
      <path
         d="m 122.28536,27.78541 c 0,0 -0.13899,2.16888 -0.6985,3.41066 h 1.20156 c 0.54752,-1.49472 0.63606,-3.44488 0.63606,-3.44488 v -5.73546 h -0.71578 -0.42334 -6.83613 v 1.06645 h 6.83613 v 4.70323"
         style="fill:#223786;fill-opacity:1;fill-rule:nonzero;stroke:none;stroke-width:0.0352778"
         id="path843" />
      <path
         d="m 51.796833,32.80156 h 1.2506 v -11.6713 h -1.2506 v 3.39055 h -2.27154 v 1.14441 h 2.27154 v 7.13634"
         style="fill:#223786;fill-opacity:1;fill-rule:nonzero;stroke:none;stroke-width:0.0352778"
         id="path845" />
      <path
         d="m 85.511453,25.97213 h 0.93945 v 6.82943 h 1.24883 v -11.6713 h -1.24883 v 3.69641 h -0.93945 v -3.69641 h -1.24989 v 11.6713 h 1.24989 v -6.82943"
         style="fill:#223786;fill-opacity:1;fill-rule:nonzero;stroke:none;stroke-width:0.0352778"
         id="path847" />
      <path
         d="m 104.08379,32.80685 h 1.24954 v -4.60198 h -0.45226 v -3.90596 h 1.67781 v -1.02306 h -1.67781 v -2.14559 h -1.2513 v 7.07461 h -7.037567 v 1.06715 h 7.491587 v 3.53483"
         style="fill:#223786;fill-opacity:1;fill-rule:nonzero;stroke:none;stroke-width:0.0352778"
         id="path849" />
      <path
         d="m 70.085543,31.63775 h -7.17938 v -0.87913 h 7.17938 v -0.75388 -0.3556 -0.96732 -1.10984 h -1.14512 -2.40312 v -1.46015 h 4.13455 v -1.11019 h -9.47667 v 1.11019 h 4.11022 v 1.46015 h -3.52319 v 1.10984 h 7.15821 v 0.96732 h -7.15821 v 0.66639 h -0.0201 v 2.43276 h 0.0201 1.12395 7.17938 v -1.11054"
         style="fill:#223786;fill-opacity:1;fill-rule:nonzero;stroke:none;stroke-width:0.0352778"
         id="path851" />
      <path
         d="m 120.35673,31.20983 v -5.2003 h -1.20615 v 5.2003 h -1.38995 v -5.2003 h -1.20685 v 5.2003 h -1.56527 v 1.06644 h 9.3472 v -1.06644 h -3.97898"
         style="fill:#223786;fill-opacity:1;fill-rule:nonzero;stroke:none;stroke-width:0.0352778"
         id="path853" />
      <path
         d="m 102.09554,22.05842 h -2.366077 v -1.0668 h -1.23014 v 1.0668 h -2.36538 v 1.02305 h 5.961597 v -1.02305"
         style="fill:#223786;fill-opacity:1;fill-rule:nonzero;stroke:none;stroke-width:0.0352778"
         id="path855" />
      <path
         d="M 83.052593,29.18594 V 28.0754 h -3.37326 v -4.86728 h 3.21804 v -1.10949 h -3.21804 -1.10137 -0.13088 V 29.193 h 1.23225 v -0.007 h 3.37326"
         style="fill:#223786;fill-opacity:1;fill-rule:nonzero;stroke:none;stroke-width:0.0352778"
         id="path857" />
      <path
         d="m 17.348083,30.41643 h -0.8061 v 1.02059 h 0.8061 z m -3.52743,7.72336 c 1.16417,1.53811 3.21169,1.18781 3.21169,1.18781 0.24801,-2.177 -0.63288,-2.88255 -0.63288,-2.88255 -0.54751,1.15464 0.27975,2.55058 0.27975,2.55058 -1.24495,-1.15005 -2.85856,-0.85584 -2.85856,-0.85584 z m 2.12373,-11.94611 -0.39159,-0.36548 c -0.94509,0.24095 -1.63512,1.08021 -1.63512,1.08021 0.4452,-1.06328 0.20567,-2.05811 0.007,-2.58657 l -0.28504,-0.23354 c -0.82057,1.55752 0.0889,3.26425 0.0889,3.26425 1.26223,-0.30303 1.90323,-0.80186 2.21615,-1.15887 z m 2.6423,14.2046 c -0.0416,-0.67593 -0.16404,-1.1684 -0.31573,-1.56246 l -0.77788,0.001 c 0.20955,0.73871 0.68792,1.2954 0.68792,1.2954 -1.42593,-0.91617 -2.96439,-0.34608 -2.96439,-0.34608 1.41463,1.31237 3.37008,0.61172 3.37008,0.61172 z m 2.87408,-9.10661 v 0.39123 h -0.42121 v 0.45897 h 0.37041 v 0.39087 h -0.37041 v 0.47555 h 0.42756 v 0.39052 h -0.84455 v -2.10396 l -0.58349,2.10396 h -0.34043 l -0.6089,-2.10714 h 0.44627 l 0.25153,1.01247 c 0.037,0.1196 0.0512,0.23989 0.0751,0.35948 h 0.006 c 0.0219,-0.12276 0.0314,-0.24235 0.0642,-0.36547 l 0.25365,-1.00648 z m 0.52423,4.6729 h -0.44521 l -0.0776,-0.35384 h -0.42192 l -0.0762,0.35384 h -0.4131 l 0.4893,-2.10679 h 0.43886 z m -0.43886,-4.6729 h 0.4191 c 0.26565,0 0.74048,0.0282 0.74048,0.6036 0,0.23213 -0.0917,0.43004 -0.2988,0.54434 l 0.36654,0.9592 h -0.4385 l -0.36513,-0.97296 h -0.007 v 0.97296 h -0.41628 z m 1.30916,0 h 0.41628 v 2.10714 h -0.41628 z m -0.30797,4.70676 c -0.11889,0 -0.26353,-0.0353 -0.35878,-0.10689 v -0.39617 c 0.0974,0.0667 0.19297,0.11218 0.31574,0.11218 0.13441,0 0.24095,-0.0896 0.24095,-0.22965 0,-0.16158 -0.12842,-0.22402 -0.24554,-0.30763 -0.2413,-0.16227 -0.38876,-0.31785 -0.38876,-0.62547 0,-0.33267 0.19227,-0.62054 0.55104,-0.62054 0.13264,0 0.25435,0.0363 0.36759,0.10301 v 0.40535 c -0.0836,-0.072 -0.18697,-0.13335 -0.30056,-0.13335 -0.12947,0 -0.2099,0.0772 -0.2099,0.20637 0,0.34678 0.63429,0.36618 0.63429,0.93592 0,0.3743 -0.21519,0.65687 -0.60607,0.65687 z m -2.07151,-1.74942 h -0.32915 v 1.71556 h -0.41839 v -1.71556 h -0.32561 v -0.39123 h 1.07315 z m -2.07998,-5.3908 v 8.86707 h 4.39173 c 0.49812,0.0123 1.00789,0.40217 1.00789,0.40217 v -7.09331 c -2.6596,-0.0579 -3.19582,-2.17593 -3.19582,-2.17593 z m 10.19669,-4.58117 -1.31692,1.43228 0.0134,2.28882 c 0,0 -0.0402,0.37676 -0.11994,0.56374 h 0.84526 l 2.41793,-2.4183 z m -11.21834,10.96292 h -0.80539 v 1.01988 h 0.80539 z m 1.31657,-9.90141 1.69369,1.66546 v -1.28905 l -1.69369,-1.69298 z m -1.33456,14.27197 c 0.10548,0 0.19156,-0.0857 0.19156,-0.1912 0,-0.10619 -0.0861,-0.19156 -0.19156,-0.19156 -0.10548,0 -0.19156,0.0854 -0.19156,0.19156 0,0.10548 0.0861,0.1912 0.19156,0.1912 z m -3.0667,-13.64227 c 0,0.10548 0.0864,0.19156 0.19156,0.19156 0.10513,0 0.19121,-0.0861 0.19121,-0.19156 0,-0.10583 -0.0861,-0.19191 -0.19121,-0.19191 -0.10512,0 -0.19156,0.0861 -0.19156,0.19191 z m 3.07693,12.24598 c 0.008,0.0871 0.0247,-0.0198 0.0247,-0.0198 v -1.24495 l -0.20532,0.2279 c 0.11642,0.31432 0.15699,0.76552 0.18062,1.03681 z m 3.01802,-10.57205 v -0.2614 l -1.24989,-1.24954 h -2.92806 l 1.65382,1.51094 z m -6.35212,-3.556 c 0,0 -0.11042,-0.68227 0.60149,-1.70391 h -2.40454 c 0,0 0.1016,0.27904 1.80305,1.70391 z m -2.08562,3.75074 c -0.42933,1.88101 1.15605,3.22474 1.15605,3.22474 1.82704,-1.20932 1.79881,-2.33856 1.79881,-2.33856 -1.23507,0.32314 -1.772,1.8542 -1.772,1.8542 0.0808,-1.69228 -1.18286,-2.74038 -1.18286,-2.74038 z m 1.41711,0.87101 c 0.37288,-1.65277 -0.68933,-2.90407 -0.68933,-2.90407 -0.74965,1.77765 0.57926,3.37608 0.57926,3.37608 2.00872,-0.87347 2.17805,-1.98931 2.17805,-1.98931 -1.27212,0.10266 -2.06798,1.5173 -2.06798,1.5173 z m 0.16827,0.78881 c 0,-0.10584 -0.0854,-0.19156 -0.1905,-0.19156 -0.10583,0 -0.19085,0.0857 -0.19085,0.19156 0,0.10618 0.085,0.1912 0.19085,0.1912 0.10513,0 0.1905,-0.085 0.1905,-0.1912 z m 9.79523,9.69327 h 1.26083 c 0,0 0.0833,-0.54786 0.43956,-0.54786 h 5.23381 v -9.20856 l -0.52035,-0.54822 v 9.12601 h -4.68771 c 0,0 -0.62935,0.055 -1.12289,0.65758 0,0 -0.38418,-0.57432 -1.2058,-0.62971 h -4.57693 v -9.07168 l -0.56163,0.56162 v 9.11296 h 5.11105 c 0,0 0.63006,0.0268 0.63006,0.54786 z m -8.20208,-16.92345 c -1.31234,1.41358 -0.61172,3.36973 -0.61172,3.36973 2.18652,-0.133 2.72732,-1.1236 2.72732,-1.1236 -1.2319,-0.33866 -2.46309,0.71896 -2.46309,0.71896 0.91652,-1.42663 0.34749,-2.96509 0.34749,-2.96509 z m 6.16902,12.45235 -0.0473,-0.31962 h -0.005 l -0.0452,0.31962 -0.0889,0.56091 h 0.29351 z m 12.09393,3.96275 c 0.31821,-0.19791 0.62195,-0.46708 0.87207,-0.83608 0,0 -0.69145,-0.0893 -1.50213,0.18415 z m 1.33103,-8.35731 c 0,0 -0.57221,-1.51835 -1.81539,-1.81186 0,0 0,1.12924 1.85455,2.29517 0,0 1.55187,-1.38077 1.07844,-3.2512 0,0 -1.23684,1.07809 -1.1176,2.76789 z m -2.32939,4.53249 c 0,0 -0.72425,0.86537 -0.0536,2.95028 0,0 2.07645,-0.0593 2.9157,-1.79563 0,0 -1.63971,0.0296 -2.63525,1.40123 0,0 0.53658,-1.53106 -0.22683,-2.55588 z m 2.27859,-2.649 c 0,0 -0.30021,-1.59562 -1.47249,-2.10009 0,0 -0.19791,1.11231 1.42769,2.58198 0,0 1.76988,-1.08938 1.62736,-3.01343 0,0 -1.40547,0.84667 -1.58256,2.53154 z m -1.46226,-0.47837 c 0,0 -0.38594,1.0608 0.95779,2.79118 0,0 1.93181,-0.76553 2.12654,-2.68535 0,0 -1.53211,0.58844 -1.99637,2.21862 0,0 -0.0197,-1.62313 -1.08796,-2.32445 z m 1.22943,1.42487 c 0.10583,0 0.19085,-0.0861 0.19085,-0.19156 0,-0.10548 -0.085,-0.19191 -0.19085,-0.19191 -0.10619,0 -0.19086,0.0864 -0.19086,0.19191 0,0.10548 0.0847,0.19156 0.19086,0.19156 z m -1.11972,3.27625 c 0,-0.10584 -0.0857,-0.19227 -0.19085,-0.19227 -0.10619,0 -0.19156,0.0864 -0.19156,0.19227 0,0.10548 0.0854,0.1912 0.19156,0.1912 0.10513,0 0.19085,-0.0857 0.19085,-0.1912 z M 17.132883,25.02528 h 0.002 c -0.0773,0.06 -0.60995,0.54645 -1.41958,0.64488 l 0.27693,0.25894 2.90019,-0.0131 -0.89994,-0.89993 h -7e-4 l -0.45685,-0.45685 c 0,0 -0.32173,0.41275 -0.40217,0.46602 z m 11.21657,9.38847 h -0.005 l -0.0448,0.3175 -0.0896,0.56163 h 0.29245 l -0.10654,-0.56163 z m -6.04943,-2.51495 c 0,-0.15169 -0.0706,-0.27411 -0.28116,-0.26317 h -0.0565 v 0.56197 l 0.0734,0.002 c 0.18944,0 0.26423,-0.12876 0.26423,-0.30127 z m 4.11692,1.16946 c 0.20284,0 0.20284,-0.15381 0.20637,-0.31009 v -1.45274 h 0.41628 v 1.5367 c 0,0.22401 -0.0254,0.60325 -0.62618,0.60325 -0.38841,0 -0.62018,-0.18098 -0.62018,-0.57503 v -1.56492 h 0.41663 v 1.36384 c 0,0.1591 -0.0194,0.39899 0.20708,0.39899 z m 1.07174,0.80328 v 0.39052 h -0.42087 v 0.45826 h 0.37148 v 0.39193 h -0.37148 v 0.47484 h 0.42651 v 0.39229 h -0.84349 v -2.10784 z m -0.1136,-2.56611 h 0.46849 l 0.12065,0.29386 c 0.036,0.10301 0.0787,0.21167 0.10125,0.32103 h 0.006 c 0.0212,-0.10936 0.0557,-0.2159 0.0946,-0.32103 l 0.12453,-0.29386 h 0.4512 l -0.4512,1.01953 0.48366,1.08691 h -0.48366 l -0.133,-0.33408 c -0.0395,-0.1069 -0.0649,-0.21026 -0.0917,-0.31645 h -0.006 c -0.0303,0.10619 -0.055,0.20955 -0.0914,0.31645 l -0.12418,0.33408 h -0.46849 l 0.44591,-1.08691 z m 1.26859,4.67395 -0.0787,-0.3563 h -0.42157 l -0.0765,0.3563 h -0.41275 l 0.4893,-2.10784 h 0.43921 l 0.50588,2.10784 z m -2.66665,0 -0.10054,-1.51906 h -0.006 l -0.0677,0.52035 -0.17815,0.99871 h -0.32138 l -0.20426,-1.01035 -0.0702,-0.4692 v -0.0395 h -0.005 l -0.0624,1.51906 h -0.44697 l 0.18451,-2.10784 h 0.54892 l 0.20355,1.24354 h 0.005 l 0.16827,-1.24354 h 0.5581 l 0.22189,2.10784 z m -1.35043,-4.67395 h 0.41628 v 1.71662 h 0.43533 v 0.38982 h -0.85161 z m -0.53411,-0.3242 v 7.14622 c 0,0 0.40217,-0.40217 0.96626,-0.40217 h 4.43371 v -8.86707 h -2.39218 c 0,0 -0.67804,2.09127 -3.00779,2.12302 z m -5.66278,-7.19455 c 0,0 -0.18945,0.27481 -0.907,0.42968 l 0.907,0.83926 z m 3.80717,-0.83679 v -0.9398 h 2.92982 v 1.34338 h 0.96556 v 0.96696 h -0.93839 v 0.43039 h 0.93839 v 1.0474 h -0.93839 v 3.14395 h -0.80681 l -1.11548,-1.11548 -1.01988,1.02129 -0.74013,-0.73872 1.69298,-1.69298 0.87313,0.87348 v -4.33987 z m -1.5053,4.50532 c 0,2.23132 1.39771,3.26002 3.12279,3.26002 1.72544,0 3.12596,-1.02623 3.12596,-3.26002 0,-2.23308 0,-6.35846 0,-6.35846 h -6.24734 c 0,0 -0.001,4.12997 -0.001,6.35846 z m -2.66806,0.42263 0.74577,0.65723 h 1.68205 c -0.0801,-0.13371 -0.0543,-0.64418 -0.0543,-0.64418 z m 13.53714,8.40564 c 0,0 -0.13617,0.14252 -0.18062,0.35983 l 0.40393,0.41981 c -0.0226,-0.26212 -0.0889,-0.52882 -0.22331,-0.77964 z m -15.91204,1.71873 c 0.6216,-2.10009 -0.12488,-2.94711 -0.12488,-2.94711 -0.73907,1.0407 -0.16651,2.55905 -0.16651,2.55905 -1.02553,-1.34761 -2.6663,-1.33914 -2.6663,-1.33914 0.87877,1.71732 2.95769,1.7272 2.95769,1.7272 z m -0.10407,-13.91955 c 2.17594,0.248 2.88149,-0.63324 2.88149,-0.63324 -1.15393,-0.54857 -2.54988,0.2794 -2.54988,0.2794 1.14971,-1.2446 0.85478,-2.85926 0.85478,-2.85926 -1.5374,1.16452 -1.18639,3.2131 -1.18639,3.2131 z m 4.55577,15.39593 c 0.10407,1.27352 1.51836,2.06791 1.51836,2.06791 -1.65347,-0.37208 -2.90512,0.68904 -2.90512,0.68904 1.77764,0.7499 3.37573,-0.57756 3.37573,-0.57756 -0.87348,-2.009 -1.98897,-2.17939 -1.98897,-2.17939 z m -5.54672,-3.01449 c 0.97755,-1.96003 0.39123,-2.92418 0.39123,-2.92418 -0.90981,0.89677 -0.60889,2.49203 -0.60889,2.49203 -0.77717,-1.50601 -2.39537,-1.78224 -2.39537,-1.78224 0.56974,1.84362 2.61303,2.21439 2.61303,2.21439 z m 4.39314,2.37772 -0.27305,-0.002 c -0.0141,1.20368 1.14406,2.15223 1.14406,2.15223 -1.5621,-0.65363 -2.9785,0.17364 -2.9785,0.17364 1.61925,1.04813 3.42371,0.0176 3.42371,0.0176 -0.35137,-1.46403 -0.96591,-2.09162 -1.31622,-2.34104 z m -4.03472,0.90805 c 0,0 0.29845,-0.17745 0.73237,-0.2413 l -0.48225,-0.11395 -0.0441,0.0607 c 0.0261,-0.0374 0.0441,-0.0607 0.0441,-0.0607 l -2.12619,2.2387 c 0,0 -0.24201,0.35002 -0.0127,0.57891 0,0 0.21378,0.17434 0.51012,-0.0271 l 2.07186,-1.81187 c -0.21096,-0.1083 -0.66851,-0.48966 -0.69321,-0.62336 z m -1.1691,-4.99039 c 1.30351,-1.76178 0.89252,-2.81235 0.89252,-2.81235 -1.05057,0.72602 -1.03258,2.34915 -1.03258,2.34915 -0.50306,-1.61819 -2.04787,-2.17135 -2.04787,-2.17135 0.23918,1.91453 2.18793,2.63455 2.18793,2.63455 z m 1.0922,-12.60511 -2.51707,-2.51954 c 0,0 -1.05516,0.75601 -0.23601,2.51954 z m 1.13982,-0.91687 -1.48096,-1.49507 c -0.91722,-0.91722 -2.00519,-0.31256 -2.00519,-0.31256 l 2.91712,2.90618 c 0.19579,-0.74612 0.56903,-1.09855 0.56903,-1.09855 z m -2.72874,11.96834 c 0,0.10584 0.0857,0.19156 0.1905,0.19156 0.10619,0 0.19086,-0.0857 0.19086,-0.19156 0,-0.10583 -0.0847,-0.19155 -0.19086,-0.19155 -0.10477,0 -0.1905,0.0857 -0.1905,0.19155 z m -0.005,-0.26529 c 1.58926,-1.50847 1.36666,-2.61478 1.36666,-2.61478 -1.16064,0.53198 -1.42452,2.1336 -1.42452,2.1336 -0.21414,-1.68064 -1.64006,-2.49379 -1.64006,-2.49379 -0.097,1.92722 1.69792,2.97497 1.69792,2.97497 z m 1.39488,3.70911 c 0,0.10619 0.0854,0.19191 0.19191,0.19191 0.10548,0 0.19156,-0.0857 0.19156,-0.19191 0,-0.10548 -0.0861,-0.19085 -0.19156,-0.19085 -0.10654,0 -0.19191,0.0854 -0.19191,0.19085 z m 16.02458,2.79506 c 0.10548,0 0.19085,-0.0854 0.19085,-0.19121 0,-0.10654 -0.0854,-0.19156 -0.19085,-0.19156 -0.10584,0 -0.1905,0.085 -0.1905,0.19156 0,0.10584 0.0847,0.19121 0.1905,0.19121 z m 1.01741,-0.24765 -0.67345,-0.54998 c 0.0148,0.1711 0.036,0.35313 0.0688,0.54645 0,0 0.2413,0.0289 0.60466,0.004 z m 1.88348,-3.3909 c 0,0 0.26353,-1.60126 -0.66534,-2.47615 0,0 -0.56656,0.97684 0.4565,2.91395 0,0 2.03623,-0.41875 2.56152,-2.27542 0,0 -1.61149,0.31432 -2.35268,1.83762 z m -12.77091,5.34497 c 0,-0.10555 -0.0861,-0.19166 -0.19156,-0.19166 -0.10548,0 -0.19156,0.0861 -0.19156,0.19166 0,0.10502 0.0861,0.19156 0.19156,0.19156 0.10548,0 0.19156,-0.0865 0.19156,-0.19156 z m 9.06322,-1.15574 c 0,0 0.4138,-0.49635 0.61947,-1.19556 l -0.77928,-0.013 c -0.12277,0.3817 -0.21626,0.86818 -0.24024,1.48308 0,0 1.6831,0.5595 3.02965,-0.41558 l -0.51858,-0.41769 c -0.57503,-0.0317 -1.36349,0.0533 -2.11102,0.5588 z m 0.56656,-3.10338 v 1.02058 l 4.56671,3.7888 h 0.91369 l -4.64926,-4.80938 z m -6.69079,4.40573 v 0.47805 c -0.22048,-0.3478 -1.08091,-1.60683 -2.05387,-1.66821 0,0 0.32985,1.12543 1.78682,1.78604 0,0 -1.82633,0.12143 -2.5721,1.12078 0,0 1.59208,0.14358 2.83915,-1.0957 v 0.77721 h 0.48331 v -0.8333 -0.56487 z m 0.80681,0.59133 c 1.45062,-0.67208 1.772,-1.79984 1.772,-1.79984 -1.12818,0.0804 -2.0955,1.77338 -2.0955,1.77338 1.26294,1.28944 2.9016,1.12861 2.9016,1.12861 -0.75177,-0.99452 -2.5781,-1.10215 -2.5781,-1.10215 z m 1.87395,-0.39825 c 0,0 1.39594,-0.82797 1.46791,-2.10291 0,0 -1.11125,0.19509 -1.93569,2.22458 0,0 1.62701,1.28972 3.38843,0.49887 0,0 -1.2767,-1.03188 -2.92065,-0.62054 z m 1.78724,-0.59761 c 0,0 1.08338,-0.93098 1.09291,-2.09303 l -0.38629,0.0148 c -0.35102,0.30727 -0.86325,0.96026 -1.14759,2.28004 0,0 1.8288,0.98806 3.42371,-0.0963 0,0 -1.43651,-0.79661 -2.98274,-0.10552 z m -0.96061,0.18405 c 0,0.10559 0.0847,0.1917 0.19226,0.1917 0.10478,0 0.1905,-0.0861 0.1905,-0.1917 0,-0.10583 -0.0857,-0.19145 -0.1905,-0.19145 -0.10759,0 -0.19226,0.0856 -0.19226,0.19145 z m 6.76839,-13.96284 c 0,0 0.98778,-1.82774 -0.0974,-3.42371 0,0 -0.79481,1.43581 -0.10372,2.98344 0,0 -1.05798,-1.23084 -2.32551,-1.08126 0,0 0.38453,1.06115 2.52659,1.52153 z m -4.64749,-4.2739 0.58032,-0.59973 c -0.49424,-0.1143 -1.42099,-0.27904 -2.17135,0.27976 0,0 0.38559,0.43744 1.59103,0.31997 z m 3.85692,3.10091 c 0.10513,0 0.19121,-0.0857 0.19121,-0.19156 0,-0.10512 -0.0861,-0.19226 -0.19121,-0.19226 -0.10513,0 -0.19156,0.0871 -0.19156,0.19226 0,0.10584 0.0864,0.19156 0.19156,0.19156 z m 1.30845,2.98874 c 0,0 1.29082,-1.62913 0.49812,-3.38949 0,0 -1.03187,1.27635 -0.62053,2.92064 0,0 -0.82656,-1.39594 -2.10256,-1.46896 0,0 0.1965,1.11125 2.22497,1.93781 z m -2.788,-9.17505 c 0.60395,0.29986 1.09008,-0.0148 1.09008,-0.0148 0.67134,-0.32914 1.15888,0.12842 1.15888,0.12842 0.46919,0.36618 0.39123,0.84807 0.39123,0.84807 0,0.36936 -0.10583,0.39476 -0.10583,0.39476 -0.22437,0.15417 -0.16828,-0.10583 -0.16828,-0.10583 0.007,-0.004 0.0508,-0.18274 0.0508,-0.18274 0.0882,-0.83397 -0.66111,-0.95356 -0.66111,-0.95356 -0.79339,-0.13935 -0.99165,0.59478 -0.99165,0.59478 -0.0512,0.20179 -0.0547,0.38136 -0.0328,0.5394 l -0.99131,-0.99166 0.0466,0.83891 2.21615,2.21685 h 0.79304 l -0.80539,-0.80468 c 0.4251,0.13335 0.79834,0.14711 0.79834,0.14711 1.13171,-0.0699 1.2506,-1.15182 1.2506,-1.15182 0.29915,-1.13136 -0.77365,-2.04435 -0.77365,-2.04435 -0.71578,-0.6156 -1.7974,-0.66569 -1.7974,-0.66569 -1.53811,-0.1778 -2.08386,-1.16099 -2.08386,-1.16099 -0.18027,0.44767 -0.13405,1.11019 -0.13405,1.11019 0.10265,1.01917 0.74965,1.25765 0.74965,1.25765 z m 2.51601,9.48902 c 0,0.10583 0.085,0.19085 0.1905,0.19085 0.10689,0 0.19226,-0.085 0.19226,-0.19085 0,-0.10619 -0.0854,-0.19191 -0.19226,-0.19191 -0.10548,0 -0.1905,0.0857 -0.1905,0.19191 z m -4.19947,-7.1501 0.46814,-0.47484 c -0.19826,-0.67028 -0.60113,-1.47849 -1.59879,-1.96003 0,0 -0.0409,1.43368 1.13065,2.43487 z m 1.17405,13.2394 h -0.80539 v 1.02094 h 0.80539 z m 0.62759,-10.1152 c 0.35489,0.10125 0.79269,0.17674 1.32786,0.19826 0,0 0.24271,-0.72214 0.13582,-1.60055 l -0.69815,0.66922 c 0.0751,0.17709 0.1711,0.3556 0.28857,0.53163 0,0 -0.19156,-0.1591 -0.49953,-0.32984 z m -15.31338,-2.17946 c 0,0.10583 0.0857,0.1912 0.19085,0.1912 0.10584,0 0.19227,-0.0854 0.19227,-0.1912 0,-0.10619 -0.0864,-0.19156 -0.19227,-0.19156 -0.10512,0 -0.19085,0.0854 -0.19085,0.19156 z m 16.86172,0.23001 -2.06833,-2.06834 -1.85491,2.01472 1.99002,1.96179 z m -4.39314,0.0681 -0.41557,0.49707 2.25636,2.25707 0.4572,-0.45755 z m 2.17699,6.99876 h -0.80539 v 1.02094 h 0.80539 z M 21.568013,20.587 c 0,0 0.63464,0.41945 1.74942,-0.3489 0,0 -1.38042,-0.56585 -1.74942,0.3489 z m 7.18855,0.72249 c 0,0 -0.62618,-0.18979 -1.41746,0.0801 l -0.002,0.72108 c 0.48295,-0.009 0.97155,-0.12453 1.85702,-0.59267 0,0 -0.4191,-2.03517 -2.274,-2.5594 0,0 0.31362,1.61043 1.83691,2.35091 z m -8.31956,0.89888 0.0141,-0.70238 c -0.7807,-0.22966 -1.57056,-0.0808 -1.57056,-0.0808 1.50565,-0.77682 1.78082,-2.39395 1.78082,-2.39395 -1.84468,0.56797 -2.21474,2.61232 -2.21474,2.61232 0.8509,0.42439 1.51271,0.55351 1.99037,0.5648 z m -0.57997,0.4064 c -1.04175,-0.74048 -2.5601,-0.16722 -2.5601,-0.16722 1.34761,-1.02658 1.33914,-2.66735 1.33914,-2.66735 -1.71697,0.88018 -1.72649,2.95804 -1.72649,2.95804 2.09938,0.6223 2.94745,-0.12347 2.94745,-0.12347 z m -0.11853,-1.54129 c 0,0.10548 0.0861,0.19156 0.19085,0.19156 0.10619,0 0.19227,-0.0861 0.19227,-0.19156 0,-0.10583 -0.0861,-0.1912 -0.19227,-0.1912 -0.10477,0 -0.19085,0.0854 -0.19085,0.1912 z m 0.4632,-0.20249 1.44639,-0.0201 c -0.44874,-0.27058 -0.94051,-0.26035 -0.94051,-0.26035 1.61678,-0.50341 2.07857,-1.94486 2.07857,-1.94486 -1.91488,0.23883 -2.6356,2.18792 -2.6356,2.18792 0.0258,0.019 0.0272,0.0194 0.0512,0.0374 z m 7.71595,0.0981 c 0,-0.10583 -0.0854,-0.19121 -0.19191,-0.19121 -0.10548,0 -0.19085,0.0854 -0.19085,0.19121 0,0.10548 0.0854,0.19226 0.19085,0.19226 0.10654,0 0.19191,-0.0868 0.19191,-0.19226 z m -1.01529,-0.37853 c 0,0 -0.49177,-0.0102 -0.9398,0.26035 l 1.44427,0.0201 c 0.0261,-0.018 0.0261,-0.0183 0.0515,-0.0374 0,0 -0.72002,-1.94909 -2.63455,-2.18792 0,0 0.46144,1.44145 2.07857,1.94486 z m -3.10691,-0.22225 c 0.14252,0 0.25682,-0.11501 0.25682,-0.25647 0,-0.14111 -0.1143,-0.25647 -0.25682,-0.25647 -0.14112,0 -0.25612,0.11536 -0.25612,0.25647 0,0.14146 0.115,0.25647 0.25612,0.25647 z m 2.24507,0.1337 c -0.40428,-0.90029 -1.76036,-0.28257 -1.76036,-0.28257 1.14159,0.72601 1.76036,0.28257 1.76036,0.28257"
         style="fill:#223786;fill-opacity:1;fill-rule:nonzero;stroke:none;stroke-width:0.0352778"
         id="path859" />
    </g>
  </g>
</svg>
